<svg width="114" height="104" viewBox="0 0 114 104" fill="none" xmlns="http://www.w3.org/2000/svg">
<path d="M110.11 70.3744L75.9014 10.9555C72.0112 4.19812 64.7634 0 56.9858 0C49.2109 0 41.9631 4.19676 38.0702 10.9528L3.4156 71.1457C-0.471865 77.9004 -0.471865 86.2925 3.4156 93.0445C7.30711 99.8019 14.5562 104 22.3325 104H91.6526C91.7378 104 91.8229 103.999 91.9081 103.996C103.822 103.864 113.5 94.0544 113.5 82.0971C113.5 77.9329 112.328 73.8812 110.11 70.3744ZM91.6742 94.5112L91.6526 99.2556V94.5112H22.3339C17.926 94.5112 13.8169 92.1309 11.6109 88.3001C9.40764 84.4734 9.40764 79.7168 11.6109 75.8887L46.2642 15.6985C48.4715 11.8678 52.5806 9.4888 56.9872 9.4888C61.395 9.4888 65.5028 11.8691 67.7088 15.6999L101.97 75.2083C102.007 75.2733 102.046 75.3357 102.086 75.398C103.364 77.3975 104.04 79.7141 104.04 82.0971C104.038 88.8884 98.5327 94.4556 91.6742 94.5112ZM56.9993 66.141C59.919 66.141 62.2871 63.7661 62.2871 60.8381V34.6328C62.2871 31.7048 59.919 29.3299 56.9993 29.3299C54.0797 29.3299 51.7115 31.7048 51.7115 34.6328V60.8381C51.7115 63.7661 54.0797 66.141 56.9993 66.141ZM56.9993 69.2493C55.2151 69.2493 53.4836 69.9677 52.2143 71.2284C50.9573 72.4904 50.2409 74.239 50.2409 76.027C50.2409 77.8163 50.9573 79.5528 52.2143 80.8121C53.4836 82.0727 55.2272 82.8047 56.9993 82.8047C58.77 82.8047 60.5137 82.0727 61.7708 80.8121C63.04 79.5514 63.7578 77.8163 63.7578 76.027C63.7578 74.239 63.0414 72.4904 61.7708 71.2284C60.5137 69.9677 58.7822 69.2493 56.9993 69.2493Z" fill="#FBA939"/>
</svg>
